<svg xmlns="http://www.w3.org/2000/svg" viewBox="0 0 1000 1000"><path d="M0 744v-134q0-26 18-32l171-80q-66-39-68-131 0-56 35-103 37-41 90-43 31 0 63 19-49 125 23 237-12 11-25 19l-114 55q-48 23-52 84v143h-114q-25 0-27-34zm193 59v-168q0-27 22-37l152-70 57-28q-37-23-60-66t-22-94q0-76 46-130t110-54 109 54 45 130q0 105-78 158l61 30 146 70q24 10 24 37v168q-2 37-37 41h-541q-14-2-24-14t-10-27zm473-330q68-106 22-231 31-19 66-21 49 0 90 43 35 41 35 103 0 82-65 131l168 80q18 10 18 32v134q0 32-27 34h-118v-143q0-57-50-84l-110-53q-15-8-29-25z"/></svg>