<svg viewBox="0 0 571.4 1000" xmlns="http://www.w3.org/2000/svg">
	<path d="M546 661q0 86-56 147t-144 77v97q0 8-5 13t-13 5h-75q-7 0-13-5t-5-13v-97q-37-5-71-18t-57-25-41-26-26-21-10-10q-9-12-1-23l58-76q3-5 12-6t14 5l1 1q63 55 135 70 21 4 42 4 45 0 79-24t35-68q0-16-9-30t-18-23-33-21-37-18-45-18q-21-9-34-14t-34-15-35-17-32-20-29-24-25-27-20-32-11-37-5-44q0-77 55-135t142-75v-100q0-7 5-13t13-5h75q8 0 13 5t5 13v98q32 3 62 13t48 19 36 21 21 16 9 8q9 10 3 21l-46 81q-4 9-12 9-8 2-16-4-1-1-8-6t-21-15-33-18-42-15-47-6q-53 0-87 24t-33 62q0 14 4 27t17 23 22 18 31 18 34 15 39 15q30 11 45 18t43 19 42 24 34 28 30 35 18 43 7 52z" />
</svg>
